<?xml version="1.0" encoding="UTF-8" standalone="no"?>
<!-- Generator: Adobe Illustrator 15.1.0, SVG Export Plug-In . SVG Version: 6.00 Build 0)  -->

<svg
   xmlns:dc="http://purl.org/dc/elements/1.1/"
   xmlns:cc="http://creativecommons.org/ns#"
   xmlns:rdf="http://www.w3.org/1999/02/22-rdf-syntax-ns#"
   xmlns:svg="http://www.w3.org/2000/svg"
   xmlns="http://www.w3.org/2000/svg"
   xmlns:sodipodi="http://sodipodi.sourceforge.net/DTD/sodipodi-0.dtd"
   xmlns:inkscape="http://www.inkscape.org/namespaces/inkscape"
   version="1.1"
   x="0px"
   y="0px"
   width="32px"
   height="32px"
   viewBox="0 0 32 32"
   style="enable-background:new 0 0 32 32;"
   xml:space="preserve"
   id="svg2"
   inkscape:version="0.48.4 r9939"
   sodipodi:docname="icon_inactive.svg"
   inkscape:export-filename="/home/vik/vikparuchuri/matter/icon128.png"
   inkscape:export-xdpi="360"
   inkscape:export-ydpi="360"><metadata
     id="metadata22"><rdf:RDF><cc:Work
         rdf:about=""><dc:format>image/svg+xml</dc:format><dc:type
           rdf:resource="http://purl.org/dc/dcmitype/StillImage" /><dc:title></dc:title></cc:Work></rdf:RDF></metadata><defs
     id="defs20" /><sodipodi:namedview
     pagecolor="#ffffff"
     bordercolor="#666666"
     borderopacity="1"
     objecttolerance="10"
     gridtolerance="10"
     guidetolerance="10"
     inkscape:pageopacity="0"
     inkscape:pageshadow="2"
     inkscape:window-width="1855"
     inkscape:window-height="1176"
     id="namedview18"
     showgrid="false"
     inkscape:zoom="7.375"
     inkscape:cx="16"
     inkscape:cy="16"
     inkscape:window-x="65"
     inkscape:window-y="24"
     inkscape:window-maximized="1"
     inkscape:current-layer="svg2" /><g
     id="Layer_1" /><polygon
     style="fill:#4e4e50;fill-opacity:1"
     points="32,0 32,4 32,4 0,4 0,0 "
     id="polygon8-9"
     transform="matrix(0.73242187,0,0,0.73242184,4.2812486,4.2812518)" /><polygon
     style="fill:#4e4e50;fill-opacity:1"
     points="20,8 20,12 20,12 0,12 0,8 "
     id="polygon10-6"
     transform="matrix(0.73242187,0,0,0.73242184,4.2812486,4.2812518)" /><polygon
     style="fill:#4e4e50;fill-opacity:1"
     points="32,20 32,24 32,24 0,24 0,20 "
     id="polygon12-0"
     transform="matrix(0.73242187,0,0,0.73242184,4.2812486,4.2812518)" /><polygon
     style="fill:#4e4e50;fill-opacity:1"
     points="24,28 24,32 24,32 0,32 0,28 "
     id="polygon14-7"
     transform="matrix(0.73242187,0,0,0.73242184,4.2812486,4.2812518)" /><rect
     style="fill:none;stroke:#000000;stroke-width:0.90909094;stroke-opacity:1"
     id="rect3754"
     width="29.09091"
     height="29.09091"
     x="1.4545455"
     y="1.4545455" /></svg>